# xmcd
#
# Track frame offsets:
#	150
#	13636
#	30574
#	44399
#	58316
#	71610
#	84902
#	100488
#	114736
#	126754
#	142975
#	160477
#	174266
#	188179
#	204631
#	221157
#	234509
#	252371
#	262916
#
# Disc length: 3755 seconds
#
# Revision: 1
# Processed by: cddbd v1.5.2PL0 Copyright (c) Steve Scherf et al.
# Submitted via: audiograbber 1.83.01
#
DISCID=120ea913
DTITLE=Various Artist - Promo Only Country Radio June 2012
DYEAR=2012
DGENRE=Country
TTITLE0=Neal McCoy - Shotgun Rider
TTITLE1=Kellie Pickler - 100 Proof
TTITLE2=LoCash Cowboys - C.O.U.N.T.R.Y.
TTITLE3=Daniel Warren - Sweet Little Lullaby
TTITLE4=Montgomery Gentry - So Called Life ("Kicks My Ass" Version)
TTITLE5=Montgomery Gentry - So Called Life ("Breaks My Back" Version)
TTITLE6=Jake Owen - Alone With You (Basement Acoustic Version)
TTITLE7=Due West - Things You Can't Do In A Car
TTITLE8=Bill Gentry - That Kind Of Life
TTITLE9=Kelly Clarkson - Mr. Know It All (Country Mix)
TTITLE10=George Strait - Drinkin' Man
TTITLE11=Randy Houser - How Country Feels
TTITLE12=Bradley Gaskin - Diamonds Make Babies
TTITLE13=Lewis Copeland - She's Got It Going On
TTITLE14=John Colbert - On The Inside
TTITLE15=The Doc Marshalls - Why I'm Leaving
TTITLE16=Willie Nelson - Just Breathe
TTITLE17=Nanci Griffith - Hell No (I'm Not Alright)
TTITLE18=Etta Britt and Delbert McClinton - Leap Of Faith
EXTD=
EXTT0=
EXTT1=
EXTT2=
EXTT3=
EXTT4=
EXTT5=
EXTT6=
EXTT7=
EXTT8=
EXTT9=
EXTT10=
EXTT11=
EXTT12=
EXTT13=
EXTT14=
EXTT15=
EXTT16=
EXTT17=
EXTT18=
PLAYORDER=
